# xmcd
#
# Track frame offsets:
#	150
#	17327
#	40031
#	57757
#	76451
#	90150
#	106649
#	121733
#	145505
#	163897
#	183067
#	200214
#	224067
#
# Disc length: 3352 seconds
#
# Revision: 0
# Processed by: cddbd v1.5.2PL0 Copyright (c) Steve Scherf et al.
# Submitted via: EasyCDDAExtractor 15.2.5.1
#
DISCID=9e0d160d
DTITLE=Grèn Sémé - Hors Sol
DYEAR=2016
DGENRE=Chanson Française
TTITLE0=Hors Sol
TTITLE1=La Rue
TTITLE2=Maloya La Rès La
TTITLE3=Pésèr
TTITLE4=Marguerite
TTITLE5=Tu Me Manques Déjà
TTITLE6=Pariez
TTITLE7=Une Minute De Silence
TTITLE8=Tibet
TTITLE9=Anna
TTITLE10=Ti Marik
TTITLE11=Zazakèl
TTITLE12=Hors Sol (Extended)
EXTD=
EXTT0=
EXTT1=
EXTT2=
EXTT3=
EXTT4=
EXTT5=
EXTT6=
EXTT7=
EXTT8=
EXTT9=
EXTT10=
EXTT11=
EXTT12=
PLAYORDER=
